<?xml version="1.0" encoding="utf-8" standalone="no"?>
<!DOCTYPE svg PUBLIC "-//W3C//DTD SVG 1.1//EN"
  "http://www.w3.org/Graphics/SVG/1.1/DTD/svg11.dtd">
<svg xmlns:xlink="http://www.w3.org/1999/xlink" width="460.8pt" height="345.6pt" viewBox="0 0 460.8 345.6" xmlns="http://www.w3.org/2000/svg" version="1.1">
 <metadata>
  <rdf:RDF xmlns:dc="http://purl.org/dc/elements/1.1/" xmlns:cc="http://creativecommons.org/ns#" xmlns:rdf="http://www.w3.org/1999/02/22-rdf-syntax-ns#">
   <cc:Work>
    <dc:type rdf:resource="http://purl.org/dc/dcmitype/StillImage"/>
    <dc:date>2023-11-02T13:16:51.824371</dc:date>
    <dc:format>image/svg+xml</dc:format>
    <dc:creator>
     <cc:Agent>
      <dc:title>Matplotlib v3.7.3, https://matplotlib.org/</dc:title>
     </cc:Agent>
    </dc:creator>
   </cc:Work>
  </rdf:RDF>
 </metadata>
 <defs>
  <style type="text/css">*{stroke-linejoin: round; stroke-linecap: butt}</style>
 </defs>
 <g id="figure_1">
  <g id="patch_1">
   <path d="M 0 345.6 
L 460.8 345.6 
L 460.8 0 
L 0 0 
z
" style="fill: #ffffff"/>
  </g>
  <g id="axes_1">
   <g id="patch_2">
    <path d="M 369.216 174.528 
C 369.216 157.055246 365.774248 139.752393 359.087715 123.609673 
C 352.401182 107.466954 342.599903 92.798303 330.2448 80.4432 
C 317.889697 68.088097 303.221046 58.286818 287.078327 51.600285 
C 270.935607 44.913752 253.632754 41.472 236.16 41.472 
C 218.687246 41.472 201.384393 44.913752 185.241673 51.600285 
C 169.098954 58.286818 154.430303 68.088097 142.0752 80.4432 
C 129.720097 92.798303 119.918818 107.466954 113.232285 123.609673 
C 106.545752 139.752393 103.104 157.055246 103.104 174.528 
C 103.104 192.000754 106.545752 209.303607 113.232285 225.446327 
C 119.918818 241.589046 129.720097 256.257697 142.0752 268.6128 
C 154.430303 280.967903 169.098954 290.769182 185.241673 297.455715 
C 201.384393 304.142248 218.687246 307.584 236.16 307.584 
C 253.632754 307.584 270.935607 304.142248 287.078327 297.455715 
C 303.221046 290.769182 317.889697 280.967903 330.2448 268.6128 
C 342.599903 256.257697 352.401182 241.589046 359.087715 225.446327 
C 365.774248 209.303607 369.216 192.000754 369.216 174.528 
M 236.16 174.528 
C 236.16 174.528 236.16 174.528 236.16 174.528 
C 236.16 174.528 236.16 174.528 236.16 174.528 
C 236.16 174.528 236.16 174.528 236.16 174.528 
C 236.16 174.528 236.16 174.528 236.16 174.528 
C 236.16 174.528 236.16 174.528 236.16 174.528 
C 236.16 174.528 236.16 174.528 236.16 174.528 
C 236.16 174.528 236.16 174.528 236.16 174.528 
C 236.16 174.528 236.16 174.528 236.16 174.528 
C 236.16 174.528 236.16 174.528 236.16 174.528 
C 236.16 174.528 236.16 174.528 236.16 174.528 
C 236.16 174.528 236.16 174.528 236.16 174.528 
C 236.16 174.528 236.16 174.528 236.16 174.528 
C 236.16 174.528 236.16 174.528 236.16 174.528 
C 236.16 174.528 236.16 174.528 236.16 174.528 
C 236.16 174.528 236.16 174.528 236.16 174.528 
C 236.16 174.528 236.16 174.528 236.16 174.528 
z
" style="fill: #ffffff"/>
   </g>
   <g id="patch_3">
    <path d="M 260.608976 43.737531 
C 252.546574 42.230407 244.362057 41.472 236.16 41.472 
C 227.957943 41.472 219.773426 42.230407 211.711024 43.737531 
L 231.270205 148.369906 
C 232.882685 148.068481 234.519589 147.9168 236.16 147.9168 
C 237.800411 147.9168 239.437315 148.068481 241.049795 148.369906 
z
" clip-path="url(#pd2ac10cad8)" style="fill: #ff0000; opacity: 0.5; stroke: #000000; stroke-linejoin: miter"/>
   </g>
   <g id="patch_4">
    <path d="M 306.204958 61.401509 
C 299.231428 57.083682 291.873562 53.4199 284.225371 50.456975 
C 276.57718 47.49405 268.671378 45.244655 260.608976 43.737531 
L 260.608976 43.737531 
C 268.671378 45.244655 276.57718 47.49405 284.225371 50.456975 
C 291.873562 53.4199 299.231428 57.083682 306.204958 61.401509 
z
" clip-path="url(#pd2ac10cad8)" style="fill: #ff0000; opacity: 0.5; stroke: #000000; stroke-linejoin: miter"/>
   </g>
   <g id="patch_5">
    <path d="M 342.34098 94.343846 
C 337.398136 87.798463 331.860641 81.72412 325.799248 76.19843 
C 319.737854 70.672739 313.178488 65.719336 306.204958 61.401509 
L 306.204958 61.401509 
C 313.178488 65.719336 319.737854 70.672739 325.799248 76.19843 
C 331.860641 81.72412 337.398136 87.798463 342.34098 94.343846 
z
" clip-path="url(#pd2ac10cad8)" style="fill: #ff0000; opacity: 0.5; stroke: #000000; stroke-linejoin: miter"/>
   </g>
   <g id="patch_6">
    <path d="M 364.136673 138.115497 
C 361.892073 130.226548 358.922819 122.562018 355.266847 115.219837 
C 351.610875 107.877657 347.283824 100.889229 342.34098 94.343846 
L 342.34098 94.343846 
C 347.283824 100.889229 351.610875 107.877657 355.266847 115.219837 
C 358.922819 122.562018 361.892073 130.226548 364.136673 138.115497 
z
" clip-path="url(#pd2ac10cad8)" style="fill: #ff0000; opacity: 0.5; stroke: #000000; stroke-linejoin: miter"/>
   </g>
   <g id="patch_7">
    <path d="M 368.648407 186.804859 
C 369.405197 178.63779 369.405197 170.41821 368.648407 162.251141 
C 367.891616 154.084072 366.381272 146.004446 364.136673 138.115497 
L 364.136673 138.115497 
C 366.381272 146.004446 367.891616 154.084072 368.648407 162.251141 
C 369.405197 170.41821 369.405197 178.63779 368.648407 186.804859 
z
" clip-path="url(#pd2ac10cad8)" style="fill: #ff0000; opacity: 0.5; stroke: #000000; stroke-linejoin: miter"/>
   </g>
   <g id="patch_8">
    <path d="M 355.266847 233.836163 
C 358.922819 226.493982 361.892073 218.829452 364.136673 210.940503 
C 366.381272 203.051554 367.891616 194.971928 368.648407 186.804859 
L 368.648407 186.804859 
C 367.891616 194.971928 366.381272 203.051554 364.136673 210.940503 
C 361.892073 218.829452 358.922819 226.493982 355.266847 233.836163 
z
" clip-path="url(#pd2ac10cad8)" style="fill: #ff0000; opacity: 0.5; stroke: #000000; stroke-linejoin: miter"/>
   </g>
   <g id="patch_9">
    <path d="M 325.799248 272.85757 
C 331.860641 267.33188 337.398136 261.257537 342.34098 254.712154 
C 347.283824 248.166771 351.610875 241.178343 355.266847 233.836163 
L 355.266847 233.836163 
C 351.610875 241.178343 347.283824 248.166771 342.34098 254.712154 
C 337.398136 261.257537 331.860641 267.33188 325.799248 272.85757 
z
" clip-path="url(#pd2ac10cad8)" style="fill: #ff0000; opacity: 0.5; stroke: #000000; stroke-linejoin: miter"/>
   </g>
   <g id="patch_10">
    <path d="M 284.225371 298.599025 
C 291.873562 295.6361 299.231428 291.972318 306.204958 287.654491 
C 313.178488 283.336664 319.737854 278.383261 325.799248 272.85757 
L 325.799248 272.85757 
C 319.737854 278.383261 313.178488 283.336664 306.204958 287.654491 
C 299.231428 291.972318 291.873562 295.6361 284.225371 298.599025 
z
" clip-path="url(#pd2ac10cad8)" style="fill: #ff0000; opacity: 0.5; stroke: #000000; stroke-linejoin: miter"/>
   </g>
   <g id="patch_11">
    <path d="M 236.16 307.584 
C 244.362057 307.584 252.546574 306.825593 260.608976 305.318469 
C 268.671378 303.811345 276.57718 301.56195 284.225371 298.599025 
L 284.225371 298.599025 
C 276.57718 301.56195 268.671378 303.811345 260.608976 305.318469 
C 252.546574 306.825593 244.362057 307.584 236.16 307.584 
z
" clip-path="url(#pd2ac10cad8)" style="fill: #ff0000; opacity: 0.5; stroke: #000000; stroke-linejoin: miter"/>
   </g>
   <g id="patch_12">
    <path d="M 188.094629 298.599025 
C 195.74282 301.56195 203.648622 303.811345 211.711024 305.318469 
C 219.773426 306.825593 227.957943 307.584 236.16 307.584 
L 236.16 307.584 
C 227.957943 307.584 219.773426 306.825593 211.711024 305.318469 
C 203.648622 303.811345 195.74282 301.56195 188.094629 298.599025 
z
" clip-path="url(#pd2ac10cad8)" style="fill: #ff0000; opacity: 0.5; stroke: #000000; stroke-linejoin: miter"/>
   </g>
   <g id="patch_13">
    <path d="M 146.520752 272.85757 
C 152.582146 278.383261 159.141512 283.336664 166.115042 287.654491 
C 173.088572 291.972318 180.446438 295.6361 188.094629 298.599025 
L 188.094629 298.599025 
C 180.446438 295.6361 173.088572 291.972318 166.115042 287.654491 
C 159.141512 283.336664 152.582146 278.383261 146.520752 272.85757 
z
" clip-path="url(#pd2ac10cad8)" style="fill: #ff0000; opacity: 0.5; stroke: #000000; stroke-linejoin: miter"/>
   </g>
   <g id="patch_14">
    <path d="M 117.053153 233.836163 
C 120.709125 241.178343 125.036176 248.166771 129.97902 254.712154 
C 134.921864 261.257537 140.459359 267.33188 146.520752 272.85757 
L 146.520752 272.85757 
C 140.459359 267.33188 134.921864 261.257537 129.97902 254.712154 
C 125.036176 248.166771 120.709125 241.178343 117.053153 233.836163 
z
" clip-path="url(#pd2ac10cad8)" style="fill: #ff0000; opacity: 0.5; stroke: #000000; stroke-linejoin: miter"/>
   </g>
   <g id="patch_15">
    <path d="M 103.671593 186.804859 
C 104.428384 194.971928 105.938728 203.051554 108.183327 210.940503 
C 110.427927 218.829452 113.397181 226.493982 117.053153 233.836163 
L 117.053153 233.836163 
C 113.397181 226.493982 110.427927 218.829452 108.183327 210.940503 
C 105.938728 203.051554 104.428384 194.971928 103.671593 186.804859 
z
" clip-path="url(#pd2ac10cad8)" style="fill: #ff0000; opacity: 0.5; stroke: #000000; stroke-linejoin: miter"/>
   </g>
   <g id="patch_16">
    <path d="M 108.183327 138.115497 
C 105.938728 146.004446 104.428384 154.084072 103.671593 162.251141 
C 102.914803 170.41821 102.914803 178.63779 103.671593 186.804859 
L 103.671593 186.804859 
C 102.914803 178.63779 102.914803 170.41821 103.671593 162.251141 
C 104.428384 154.084072 105.938728 146.004446 108.183327 138.115497 
z
" clip-path="url(#pd2ac10cad8)" style="fill: #ff0000; opacity: 0.5; stroke: #000000; stroke-linejoin: miter"/>
   </g>
   <g id="patch_17">
    <path d="M 129.97902 94.343846 
C 125.036176 100.889229 120.709125 107.877657 117.053153 115.219837 
C 113.397181 122.562018 110.427927 130.226548 108.183327 138.115497 
L 108.183327 138.115497 
C 110.427927 130.226548 113.397181 122.562018 117.053153 115.219837 
C 120.709125 107.877657 125.036176 100.889229 129.97902 94.343846 
z
" clip-path="url(#pd2ac10cad8)" style="fill: #ff0000; opacity: 0.5; stroke: #000000; stroke-linejoin: miter"/>
   </g>
   <g id="patch_18">
    <path d="M 166.115042 61.401509 
C 159.141512 65.719336 152.582146 70.672739 146.520752 76.19843 
C 140.459359 81.72412 134.921864 87.798463 129.97902 94.343846 
L 129.97902 94.343846 
C 134.921864 87.798463 140.459359 81.72412 146.520752 76.19843 
C 152.582146 70.672739 159.141512 65.719336 166.115042 61.401509 
z
" clip-path="url(#pd2ac10cad8)" style="fill: #ff0000; opacity: 0.5; stroke: #000000; stroke-linejoin: miter"/>
   </g>
   <g id="patch_19">
    <path d="M 211.711024 43.737531 
C 203.648622 45.244655 195.74282 47.49405 188.094629 50.456975 
C 180.446438 53.4199 173.088572 57.083682 166.115042 61.401509 
L 166.115042 61.401509 
C 173.088572 57.083682 180.446438 53.4199 188.094629 50.456975 
C 195.74282 47.49405 203.648622 45.244655 211.711024 43.737531 
z
" clip-path="url(#pd2ac10cad8)" style="fill: #ff0000; opacity: 0.5; stroke: #000000; stroke-linejoin: miter"/>
   </g>
   <g id="patch_20">
    <path d="M 260.608976 43.737531 
C 252.546574 42.230407 244.362057 41.472 236.16 41.472 
C 227.957943 41.472 219.773426 42.230407 211.711024 43.737531 
L 221.490614 96.053719 
C 226.328056 95.149444 231.238766 94.6944 236.16 94.6944 
C 241.081234 94.6944 245.991944 95.149444 250.829386 96.053719 
z
" clip-path="url(#pd2ac10cad8)" style="fill: #0000ff; opacity: 0.5; stroke: #000000; stroke-linejoin: miter"/>
   </g>
   <g id="patch_21">
    <path d="M 306.204958 61.401509 
C 299.231428 57.083682 291.873562 53.4199 284.225371 50.456975 
C 276.57718 47.49405 268.671378 45.244655 260.608976 43.737531 
L 250.829386 96.053719 
C 255.666827 96.957993 260.410308 98.30763 264.999223 100.085385 
C 269.588137 101.86314 274.002857 104.061409 278.186975 106.652105 
z
" clip-path="url(#pd2ac10cad8)" style="fill: #0000ff; opacity: 0.5; stroke: #000000; stroke-linejoin: miter"/>
   </g>
   <g id="patch_22">
    <path d="M 342.34098 94.343846 
C 337.398136 87.798463 331.860641 81.72412 325.799248 76.19843 
C 319.737854 70.672739 313.178488 65.719336 306.204958 61.401509 
L 306.204958 61.401509 
C 313.178488 65.719336 319.737854 70.672739 325.799248 76.19843 
C 331.860641 81.72412 337.398136 87.798463 342.34098 94.343846 
z
" clip-path="url(#pd2ac10cad8)" style="fill: #0000ff; opacity: 0.5; stroke: #000000; stroke-linejoin: miter"/>
   </g>
   <g id="patch_23">
    <path d="M 364.136673 138.115497 
C 361.892073 130.226548 358.922819 122.562018 355.266847 115.219837 
C 351.610875 107.877657 347.283824 100.889229 342.34098 94.343846 
L 342.34098 94.343846 
C 347.283824 100.889229 351.610875 107.877657 355.266847 115.219837 
C 358.922819 122.562018 361.892073 130.226548 364.136673 138.115497 
z
" clip-path="url(#pd2ac10cad8)" style="fill: #0000ff; opacity: 0.5; stroke: #000000; stroke-linejoin: miter"/>
   </g>
   <g id="patch_24">
    <path d="M 368.648407 186.804859 
C 369.405197 178.63779 369.405197 170.41821 368.648407 162.251141 
C 367.891616 154.084072 366.381272 146.004446 364.136673 138.115497 
L 364.136673 138.115497 
C 366.381272 146.004446 367.891616 154.084072 368.648407 162.251141 
C 369.405197 170.41821 369.405197 178.63779 368.648407 186.804859 
z
" clip-path="url(#pd2ac10cad8)" style="fill: #0000ff; opacity: 0.5; stroke: #000000; stroke-linejoin: miter"/>
   </g>
   <g id="patch_25">
    <path d="M 355.266847 233.836163 
C 358.922819 226.493982 361.892073 218.829452 364.136673 210.940503 
C 366.381272 203.051554 367.891616 194.971928 368.648407 186.804859 
L 368.648407 186.804859 
C 367.891616 194.971928 366.381272 203.051554 364.136673 210.940503 
C 361.892073 218.829452 358.922819 226.493982 355.266847 233.836163 
z
" clip-path="url(#pd2ac10cad8)" style="fill: #0000ff; opacity: 0.5; stroke: #000000; stroke-linejoin: miter"/>
   </g>
   <g id="patch_26">
    <path d="M 325.799248 272.85757 
C 331.860641 267.33188 337.398136 261.257537 342.34098 254.712154 
C 347.283824 248.166771 351.610875 241.178343 355.266847 233.836163 
L 355.266847 233.836163 
C 351.610875 241.178343 347.283824 248.166771 342.34098 254.712154 
C 337.398136 261.257537 331.860641 267.33188 325.799248 272.85757 
z
" clip-path="url(#pd2ac10cad8)" style="fill: #0000ff; opacity: 0.5; stroke: #000000; stroke-linejoin: miter"/>
   </g>
   <g id="patch_27">
    <path d="M 284.225371 298.599025 
C 291.873562 295.6361 299.231428 291.972318 306.204958 287.654491 
C 313.178488 283.336664 319.737854 278.383261 325.799248 272.85757 
L 325.799248 272.85757 
C 319.737854 278.383261 313.178488 283.336664 306.204958 287.654491 
C 299.231428 291.972318 291.873562 295.6361 284.225371 298.599025 
z
" clip-path="url(#pd2ac10cad8)" style="fill: #0000ff; opacity: 0.5; stroke: #000000; stroke-linejoin: miter"/>
   </g>
   <g id="patch_28">
    <path d="M 236.16 307.584 
C 244.362057 307.584 252.546574 306.825593 260.608976 305.318469 
C 268.671378 303.811345 276.57718 301.56195 284.225371 298.599025 
L 284.225371 298.599025 
C 276.57718 301.56195 268.671378 303.811345 260.608976 305.318469 
C 252.546574 306.825593 244.362057 307.584 236.16 307.584 
z
" clip-path="url(#pd2ac10cad8)" style="fill: #0000ff; opacity: 0.5; stroke: #000000; stroke-linejoin: miter"/>
   </g>
   <g id="patch_29">
    <path d="M 188.094629 298.599025 
C 195.74282 301.56195 203.648622 303.811345 211.711024 305.318469 
C 219.773426 306.825593 227.957943 307.584 236.16 307.584 
L 236.16 307.584 
C 227.957943 307.584 219.773426 306.825593 211.711024 305.318469 
C 203.648622 303.811345 195.74282 301.56195 188.094629 298.599025 
z
" clip-path="url(#pd2ac10cad8)" style="fill: #0000ff; opacity: 0.5; stroke: #000000; stroke-linejoin: miter"/>
   </g>
   <g id="patch_30">
    <path d="M 146.520752 272.85757 
C 152.582146 278.383261 159.141512 283.336664 166.115042 287.654491 
C 173.088572 291.972318 180.446438 295.6361 188.094629 298.599025 
L 188.094629 298.599025 
C 180.446438 295.6361 173.088572 291.972318 166.115042 287.654491 
C 159.141512 283.336664 152.582146 278.383261 146.520752 272.85757 
z
" clip-path="url(#pd2ac10cad8)" style="fill: #0000ff; opacity: 0.5; stroke: #000000; stroke-linejoin: miter"/>
   </g>
   <g id="patch_31">
    <path d="M 117.053153 233.836163 
C 120.709125 241.178343 125.036176 248.166771 129.97902 254.712154 
C 134.921864 261.257537 140.459359 267.33188 146.520752 272.85757 
L 146.520752 272.85757 
C 140.459359 267.33188 134.921864 261.257537 129.97902 254.712154 
C 125.036176 248.166771 120.709125 241.178343 117.053153 233.836163 
z
" clip-path="url(#pd2ac10cad8)" style="fill: #0000ff; opacity: 0.5; stroke: #000000; stroke-linejoin: miter"/>
   </g>
   <g id="patch_32">
    <path d="M 103.671593 186.804859 
C 104.428384 194.971928 105.938728 203.051554 108.183327 210.940503 
C 110.427927 218.829452 113.397181 226.493982 117.053153 233.836163 
L 117.053153 233.836163 
C 113.397181 226.493982 110.427927 218.829452 108.183327 210.940503 
C 105.938728 203.051554 104.428384 194.971928 103.671593 186.804859 
z
" clip-path="url(#pd2ac10cad8)" style="fill: #0000ff; opacity: 0.5; stroke: #000000; stroke-linejoin: miter"/>
   </g>
   <g id="patch_33">
    <path d="M 108.183327 138.115497 
C 105.938728 146.004446 104.428384 154.084072 103.671593 162.251141 
C 102.914803 170.41821 102.914803 178.63779 103.671593 186.804859 
L 103.671593 186.804859 
C 102.914803 178.63779 102.914803 170.41821 103.671593 162.251141 
C 104.428384 154.084072 105.938728 146.004446 108.183327 138.115497 
z
" clip-path="url(#pd2ac10cad8)" style="fill: #0000ff; opacity: 0.5; stroke: #000000; stroke-linejoin: miter"/>
   </g>
   <g id="patch_34">
    <path d="M 129.97902 94.343846 
C 125.036176 100.889229 120.709125 107.877657 117.053153 115.219837 
C 113.397181 122.562018 110.427927 130.226548 108.183327 138.115497 
L 108.183327 138.115497 
C 110.427927 130.226548 113.397181 122.562018 117.053153 115.219837 
C 120.709125 107.877657 125.036176 100.889229 129.97902 94.343846 
z
" clip-path="url(#pd2ac10cad8)" style="fill: #0000ff; opacity: 0.5; stroke: #000000; stroke-linejoin: miter"/>
   </g>
   <g id="patch_35">
    <path d="M 166.115042 61.401509 
C 159.141512 65.719336 152.582146 70.672739 146.520752 76.19843 
C 140.459359 81.72412 134.921864 87.798463 129.97902 94.343846 
L 129.97902 94.343846 
C 134.921864 87.798463 140.459359 81.72412 146.520752 76.19843 
C 152.582146 70.672739 159.141512 65.719336 166.115042 61.401509 
z
" clip-path="url(#pd2ac10cad8)" style="fill: #0000ff; opacity: 0.5; stroke: #000000; stroke-linejoin: miter"/>
   </g>
   <g id="patch_36">
    <path d="M 211.711024 43.737531 
C 203.648622 45.244655 195.74282 47.49405 188.094629 50.456975 
C 180.446438 53.4199 173.088572 57.083682 166.115042 61.401509 
L 166.115042 61.401509 
C 173.088572 57.083682 180.446438 53.4199 188.094629 50.456975 
C 195.74282 47.49405 203.648622 45.244655 211.711024 43.737531 
z
" clip-path="url(#pd2ac10cad8)" style="fill: #0000ff; opacity: 0.5; stroke: #000000; stroke-linejoin: miter"/>
   </g>
   <g id="patch_37">
    <path d="M 260.608976 43.737531 
C 252.546574 42.230407 244.362057 41.472 236.16 41.472 
C 227.957943 41.472 219.773426 42.230407 211.711024 43.737531 
L 211.711024 43.737531 
C 219.773426 42.230407 227.957943 41.472 236.16 41.472 
C 244.362057 41.472 252.546574 42.230407 260.608976 43.737531 
z
" clip-path="url(#pd2ac10cad8)" style="fill: #008000; opacity: 0.5; stroke: #000000; stroke-linejoin: miter"/>
   </g>
   <g id="patch_38">
    <path d="M 306.204958 61.401509 
C 299.231428 57.083682 291.873562 53.4199 284.225371 50.456975 
C 276.57718 47.49405 268.671378 45.244655 260.608976 43.737531 
L 260.608976 43.737531 
C 268.671378 45.244655 276.57718 47.49405 284.225371 50.456975 
C 291.873562 53.4199 299.231428 57.083682 306.204958 61.401509 
z
" clip-path="url(#pd2ac10cad8)" style="fill: #008000; opacity: 0.5; stroke: #000000; stroke-linejoin: miter"/>
   </g>
   <g id="patch_39">
    <path d="M 342.34098 94.343846 
C 337.398136 87.798463 331.860641 81.72412 325.799248 76.19843 
C 319.737854 70.672739 313.178488 65.719336 306.204958 61.401509 
L 306.204958 61.401509 
C 313.178488 65.719336 319.737854 70.672739 325.799248 76.19843 
C 331.860641 81.72412 337.398136 87.798463 342.34098 94.343846 
z
" clip-path="url(#pd2ac10cad8)" style="fill: #008000; opacity: 0.5; stroke: #000000; stroke-linejoin: miter"/>
   </g>
   <g id="patch_40">
    <path d="M 364.136673 138.115497 
C 361.892073 130.226548 358.922819 122.562018 355.266847 115.219837 
C 351.610875 107.877657 347.283824 100.889229 342.34098 94.343846 
L 342.34098 94.343846 
C 347.283824 100.889229 351.610875 107.877657 355.266847 115.219837 
C 358.922819 122.562018 361.892073 130.226548 364.136673 138.115497 
z
" clip-path="url(#pd2ac10cad8)" style="fill: #008000; opacity: 0.5; stroke: #000000; stroke-linejoin: miter"/>
   </g>
   <g id="patch_41">
    <path d="M 368.648407 186.804859 
C 369.405197 178.63779 369.405197 170.41821 368.648407 162.251141 
C 367.891616 154.084072 366.381272 146.004446 364.136673 138.115497 
L 364.136673 138.115497 
C 366.381272 146.004446 367.891616 154.084072 368.648407 162.251141 
C 369.405197 170.41821 369.405197 178.63779 368.648407 186.804859 
z
" clip-path="url(#pd2ac10cad8)" style="fill: #008000; opacity: 0.5; stroke: #000000; stroke-linejoin: miter"/>
   </g>
   <g id="patch_42">
    <path d="M 355.266847 233.836163 
C 358.922819 226.493982 361.892073 218.829452 364.136673 210.940503 
C 366.381272 203.051554 367.891616 194.971928 368.648407 186.804859 
L 368.648407 186.804859 
C 367.891616 194.971928 366.381272 203.051554 364.136673 210.940503 
C 361.892073 218.829452 358.922819 226.493982 355.266847 233.836163 
z
" clip-path="url(#pd2ac10cad8)" style="fill: #008000; opacity: 0.5; stroke: #000000; stroke-linejoin: miter"/>
   </g>
   <g id="patch_43">
    <path d="M 325.799248 272.85757 
C 331.860641 267.33188 337.398136 261.257537 342.34098 254.712154 
C 347.283824 248.166771 351.610875 241.178343 355.266847 233.836163 
L 355.266847 233.836163 
C 351.610875 241.178343 347.283824 248.166771 342.34098 254.712154 
C 337.398136 261.257537 331.860641 267.33188 325.799248 272.85757 
z
" clip-path="url(#pd2ac10cad8)" style="fill: #008000; opacity: 0.5; stroke: #000000; stroke-linejoin: miter"/>
   </g>
   <g id="patch_44">
    <path d="M 284.225371 298.599025 
C 291.873562 295.6361 299.231428 291.972318 306.204958 287.654491 
C 313.178488 283.336664 319.737854 278.383261 325.799248 272.85757 
L 307.871398 253.191656 
C 303.022283 257.612209 297.77479 261.574931 292.195966 265.029193 
C 286.617142 268.483454 280.73085 271.41448 274.612297 273.78482 
z
" clip-path="url(#pd2ac10cad8)" style="fill: #008000; opacity: 0.5; stroke: #000000; stroke-linejoin: miter"/>
   </g>
   <g id="patch_45">
    <path d="M 236.16 307.584 
C 244.362057 307.584 252.546574 306.825593 260.608976 305.318469 
C 268.671378 303.811345 276.57718 301.56195 284.225371 298.599025 
L 284.225371 298.599025 
C 276.57718 301.56195 268.671378 303.811345 260.608976 305.318469 
C 252.546574 306.825593 244.362057 307.584 236.16 307.584 
z
" clip-path="url(#pd2ac10cad8)" style="fill: #008000; opacity: 0.5; stroke: #000000; stroke-linejoin: miter"/>
   </g>
   <g id="patch_46">
    <path d="M 188.094629 298.599025 
C 195.74282 301.56195 203.648622 303.811345 211.711024 305.318469 
C 219.773426 306.825593 227.957943 307.584 236.16 307.584 
L 236.16 307.584 
C 227.957943 307.584 219.773426 306.825593 211.711024 305.318469 
C 203.648622 303.811345 195.74282 301.56195 188.094629 298.599025 
z
" clip-path="url(#pd2ac10cad8)" style="fill: #008000; opacity: 0.5; stroke: #000000; stroke-linejoin: miter"/>
   </g>
   <g id="patch_47">
    <path d="M 146.520752 272.85757 
C 152.582146 278.383261 159.141512 283.336664 166.115042 287.654491 
C 173.088572 291.972318 180.446438 295.6361 188.094629 298.599025 
L 188.094629 298.599025 
C 180.446438 295.6361 173.088572 291.972318 166.115042 287.654491 
C 159.141512 283.336664 152.582146 278.383261 146.520752 272.85757 
z
" clip-path="url(#pd2ac10cad8)" style="fill: #008000; opacity: 0.5; stroke: #000000; stroke-linejoin: miter"/>
   </g>
   <g id="patch_48">
    <path d="M 117.053153 233.836163 
C 120.709125 241.178343 125.036176 248.166771 129.97902 254.712154 
C 134.921864 261.257537 140.459359 267.33188 146.520752 272.85757 
L 146.520752 272.85757 
C 140.459359 267.33188 134.921864 261.257537 129.97902 254.712154 
C 125.036176 248.166771 120.709125 241.178343 117.053153 233.836163 
z
" clip-path="url(#pd2ac10cad8)" style="fill: #008000; opacity: 0.5; stroke: #000000; stroke-linejoin: miter"/>
   </g>
   <g id="patch_49">
    <path d="M 103.671593 186.804859 
C 104.428384 194.971928 105.938728 203.051554 108.183327 210.940503 
C 110.427927 218.829452 113.397181 226.493982 117.053153 233.836163 
L 117.053153 233.836163 
C 113.397181 226.493982 110.427927 218.829452 108.183327 210.940503 
C 105.938728 203.051554 104.428384 194.971928 103.671593 186.804859 
z
" clip-path="url(#pd2ac10cad8)" style="fill: #008000; opacity: 0.5; stroke: #000000; stroke-linejoin: miter"/>
   </g>
   <g id="patch_50">
    <path d="M 108.183327 138.115497 
C 105.938728 146.004446 104.428384 154.084072 103.671593 162.251141 
C 102.914803 170.41821 102.914803 178.63779 103.671593 186.804859 
L 103.671593 186.804859 
C 102.914803 178.63779 102.914803 170.41821 103.671593 162.251141 
C 104.428384 154.084072 105.938728 146.004446 108.183327 138.115497 
z
" clip-path="url(#pd2ac10cad8)" style="fill: #008000; opacity: 0.5; stroke: #000000; stroke-linejoin: miter"/>
   </g>
   <g id="patch_51">
    <path d="M 129.97902 94.343846 
C 125.036176 100.889229 120.709125 107.877657 117.053153 115.219837 
C 113.397181 122.562018 110.427927 130.226548 108.183327 138.115497 
L 108.183327 138.115497 
C 110.427927 130.226548 113.397181 122.562018 117.053153 115.219837 
C 120.709125 107.877657 125.036176 100.889229 129.97902 94.343846 
z
" clip-path="url(#pd2ac10cad8)" style="fill: #008000; opacity: 0.5; stroke: #000000; stroke-linejoin: miter"/>
   </g>
   <g id="patch_52">
    <path d="M 166.115042 61.401509 
C 159.141512 65.719336 152.582146 70.672739 146.520752 76.19843 
C 140.459359 81.72412 134.921864 87.798463 129.97902 94.343846 
L 129.97902 94.343846 
C 134.921864 87.798463 140.459359 81.72412 146.520752 76.19843 
C 152.582146 70.672739 159.141512 65.719336 166.115042 61.401509 
z
" clip-path="url(#pd2ac10cad8)" style="fill: #008000; opacity: 0.5; stroke: #000000; stroke-linejoin: miter"/>
   </g>
   <g id="patch_53">
    <path d="M 211.711024 43.737531 
C 203.648622 45.244655 195.74282 47.49405 188.094629 50.456975 
C 180.446438 53.4199 173.088572 57.083682 166.115042 61.401509 
L 166.115042 61.401509 
C 173.088572 57.083682 180.446438 53.4199 188.094629 50.456975 
C 195.74282 47.49405 203.648622 45.244655 211.711024 43.737531 
z
" clip-path="url(#pd2ac10cad8)" style="fill: #008000; opacity: 0.5; stroke: #000000; stroke-linejoin: miter"/>
   </g>
   <g id="PolyCollection_1">
    <defs>
     <path id="m008c1d22e5" d="M 236.16 -171.072 
L 236.16 -277.5168 
L 229.477047 -276.229457 
L 222.957116 -274.527332 
L 216.625638 -272.425895 
L 210.50674 -269.942152 
L 204.623154 -267.094548 
L 198.996133 -263.902852 
L 193.645375 -260.388048 
L 188.588956 -256.572219 
L 183.843269 -252.478422 
L 179.42298 -248.130566 
L 175.340979 -243.553287 
L 171.608353 -238.771819 
L 168.234362 -233.811865 
L 165.226422 -228.699469 
L 162.590107 -223.460884 
L 160.329143 -218.122444 
L 158.44543 -212.71044 
L 156.939058 -207.250992 
L 155.808338 -201.769925 
L 155.04984 -196.292654 
L 154.65844 -190.844065 
L 154.627372 -185.448402 
L 154.948291 -180.129166 
L 155.611338 -174.909006 
L 156.605215 -169.809628 
L 157.917267 -164.851703 
L 159.533567 -160.054782 
L 161.439004 -155.437223 
L 163.617384 -151.016115 
L 166.051523 -146.80722 
L 168.723357 -142.824917 
L 171.614042 -139.082152 
L 174.704066 -135.5904 
L 177.973358 -132.359635 
L 181.4014 -129.398302 
L 184.967338 -126.713306 
L 188.650096 -124.31 
L 192.428488 -122.192191 
L 196.281327 -120.362143 
L 200.187537 -118.820593 
L 204.126256 -117.566782 
L 208.076946 -116.598475 
L 212.019491 -115.91201 
L 215.934297 -115.502337 
L 219.802382 -115.36307 
L 223.605472 -115.486548 
L 227.326079 -115.863897 
L 230.947583 -116.485098 
L 234.454306 -117.339066 
L 237.83158 -118.413725 
L 241.065804 -119.696092 
L 244.144506 -121.172368 
L 247.056383 -122.828023 
L 249.791348 -124.647892 
L 252.340563 -126.61627 
L 254.696462 -128.717008 
L 256.852777 -130.933613 
L 258.804543 -133.249346 
L 260.548111 -135.647318 
L 262.081137 -138.110593 
L 263.402581 -140.622283 
L 264.512685 -143.165645 
L 265.41295 -145.724175 
L 266.10611 -148.281696 
L 266.59609 -150.822455 
L 266.887967 -153.3312 
L 266.98792 -155.793267 
L 266.903175 -158.194653 
L 266.641946 -160.522096 
L 266.21337 -162.763133 
L 265.627435 -164.906172 
L 264.894912 -166.940543 
L 264.027275 -168.856552 
L 263.036617 -170.645523 
L 261.935572 -172.299842 
L 260.737228 -173.812984 
L 259.455037 -175.179543 
L 258.102728 -176.395248 
L 256.694218 -177.456976 
L 255.24352 -178.362757 
L 253.764654 -179.111776 
L 252.271557 -179.70436 
L 250.777997 -180.141965 
L 249.297481 -180.427158 
L 247.843177 -180.563583 
L 246.427829 -180.555933 
L 245.063675 -180.409906 
L 243.762378 -180.132161 
L 242.534946 -179.730266 
L 241.391673 -179.212642 
L 240.34207 -178.588503 
L 239.394808 -177.867786 
L 238.557669 -177.061087 
L 237.837492 -176.179582 
L 237.240137 -175.234954 
L 236.770449 -174.239309 
L 236.432224 -173.2051 
L 236.228193 -172.145035 
L 236.16 -171.072 
L 236.16 -171.072 
L 236.16 -171.072 
L 236.16 -171.072 
L 236.16 -171.072 
L 236.16 -171.072 
L 236.16 -171.072 
L 236.16 -171.072 
L 236.16 -171.072 
L 236.16 -171.072 
L 236.16 -171.072 
L 236.16 -171.072 
L 236.16 -171.072 
L 236.16 -171.072 
L 236.16 -171.072 
L 236.16 -171.072 
L 236.16 -171.072 
L 236.16 -171.072 
L 236.16 -171.072 
L 236.16 -171.072 
L 236.16 -171.072 
L 236.16 -171.072 
L 236.16 -171.072 
L 236.16 -171.072 
L 236.16 -171.072 
L 236.16 -171.072 
L 236.16 -171.072 
L 236.16 -171.072 
L 236.16 -171.072 
L 236.16 -171.072 
L 236.16 -171.072 
L 236.16 -171.072 
L 236.16 -171.072 
L 236.16 -171.072 
L 236.16 -171.072 
L 236.16 -171.072 
L 236.16 -171.072 
L 236.16 -171.072 
L 236.16 -171.072 
L 236.16 -171.072 
L 236.16 -171.072 
L 236.16 -171.072 
L 236.16 -171.072 
L 236.16 -171.072 
L 236.16 -171.072 
L 236.16 -171.072 
L 236.16 -171.072 
L 236.16 -171.072 
L 236.16 -171.072 
L 236.16 -171.072 
L 236.16 -171.072 
L 236.16 -171.072 
L 236.16 -171.072 
L 236.16 -171.072 
L 236.16 -171.072 
L 236.16 -171.072 
L 236.16 -171.072 
L 236.16 -171.072 
L 236.16 -171.072 
L 236.16 -171.072 
L 236.16 -171.072 
L 236.16 -171.072 
L 236.16 -171.072 
L 236.16 -171.072 
L 236.16 -171.072 
L 236.16 -171.072 
L 236.16 -171.072 
L 236.16 -171.072 
L 236.16 -171.072 
L 236.16 -171.072 
L 236.16 -171.072 
L 236.16 -171.072 
L 236.16 -171.072 
L 236.16 -171.072 
L 236.16 -171.072 
L 236.16 -171.072 
L 236.16 -171.072 
L 236.16 -171.072 
L 236.16 -171.072 
L 236.16 -171.072 
L 236.16 -171.072 
L 236.16 -171.072 
L 236.16 -171.072 
L 236.16 -171.072 
L 236.16 -171.072 
L 236.16 -171.072 
L 236.16 -171.072 
L 236.16 -171.072 
L 236.16 -171.072 
L 236.16 -171.072 
L 236.16 -171.072 
L 236.16 -171.072 
L 236.16 -171.072 
L 236.16 -171.072 
L 236.16 -171.072 
L 236.16 -171.072 
L 236.16 -171.072 
L 236.16 -171.072 
L 236.16 -171.072 
L 236.16 -171.072 
L 236.16 -171.072 
L 236.16 -171.072 
z
" style="stroke: #000000"/>
    </defs>
    <g clip-path="url(#pd2ac10cad8)">
     <use xlink:href="#m008c1d22e5" x="0" y="345.6" style="stroke: #000000"/>
    </g>
   </g>
   <g id="matplotlib.axis_1">
    <g id="xtick_1">
     <g id="line2d_1">
      <path d="M 236.16 174.528 
L 236.16 41.472 
" clip-path="url(#pd2ac10cad8)" style="fill: none; stroke: #b0b0b0; stroke-width: 0.8; stroke-linecap: square"/>
     </g>
     <g id="text_1">
      <!-- 2 -->
      <g transform="translate(232.97875 30.231375) scale(0.1 -0.1)">
       <defs>
        <path id="DejaVuSans-32" d="M 1228 531 
L 3431 531 
L 3431 0 
L 469 0 
L 469 531 
Q 828 903 1448 1529 
Q 2069 2156 2228 2338 
Q 2531 2678 2651 2914 
Q 2772 3150 2772 3378 
Q 2772 3750 2511 3984 
Q 2250 4219 1831 4219 
Q 1534 4219 1204 4116 
Q 875 4013 500 3803 
L 500 4441 
Q 881 4594 1212 4672 
Q 1544 4750 1819 4750 
Q 2544 4750 2975 4387 
Q 3406 4025 3406 3419 
Q 3406 3131 3298 2873 
Q 3191 2616 2906 2266 
Q 2828 2175 2409 1742 
Q 1991 1309 1228 531 
z
" transform="scale(0.015625)"/>
       </defs>
       <use xlink:href="#DejaVuSans-32"/>
      </g>
     </g>
    </g>
    <g id="xtick_2">
     <g id="line2d_2">
      <path d="M 236.16 174.528 
L 284.225371 50.456975 
" clip-path="url(#pd2ac10cad8)" style="fill: none; stroke: #b0b0b0; stroke-width: 0.8; stroke-linecap: square"/>
     </g>
     <g id="text_2">
      <!-- 3 -->
      <g transform="translate(286.101504 40.161739) scale(0.1 -0.1)">
       <defs>
        <path id="DejaVuSans-33" d="M 2597 2516 
Q 3050 2419 3304 2112 
Q 3559 1806 3559 1356 
Q 3559 666 3084 287 
Q 2609 -91 1734 -91 
Q 1441 -91 1130 -33 
Q 819 25 488 141 
L 488 750 
Q 750 597 1062 519 
Q 1375 441 1716 441 
Q 2309 441 2620 675 
Q 2931 909 2931 1356 
Q 2931 1769 2642 2001 
Q 2353 2234 1838 2234 
L 1294 2234 
L 1294 2753 
L 1863 2753 
Q 2328 2753 2575 2939 
Q 2822 3125 2822 3475 
Q 2822 3834 2567 4026 
Q 2313 4219 1838 4219 
Q 1578 4219 1281 4162 
Q 984 4106 628 3988 
L 628 4550 
Q 988 4650 1302 4700 
Q 1616 4750 1894 4750 
Q 2613 4750 3031 4423 
Q 3450 4097 3450 3541 
Q 3450 3153 3228 2886 
Q 3006 2619 2597 2516 
z
" transform="scale(0.015625)"/>
       </defs>
       <use xlink:href="#DejaVuSans-33"/>
      </g>
     </g>
    </g>
    <g id="xtick_3">
     <g id="line2d_3">
      <path d="M 236.16 174.528 
L 325.799248 76.19843 
" clip-path="url(#pd2ac10cad8)" style="fill: none; stroke: #b0b0b0; stroke-width: 0.8; stroke-linecap: square"/>
     </g>
     <g id="text_3">
      <!-- 5 -->
      <g transform="translate(332.049737 68.61168) scale(0.1 -0.1)">
       <defs>
        <path id="DejaVuSans-35" d="M 691 4666 
L 3169 4666 
L 3169 4134 
L 1269 4134 
L 1269 2991 
Q 1406 3038 1543 3061 
Q 1681 3084 1819 3084 
Q 2600 3084 3056 2656 
Q 3513 2228 3513 1497 
Q 3513 744 3044 326 
Q 2575 -91 1722 -91 
Q 1428 -91 1123 -41 
Q 819 9 494 109 
L 494 744 
Q 775 591 1075 516 
Q 1375 441 1709 441 
Q 2250 441 2565 725 
Q 2881 1009 2881 1497 
Q 2881 1984 2565 2268 
Q 2250 2553 1709 2553 
Q 1456 2553 1204 2497 
Q 953 2441 691 2322 
L 691 4666 
z
" transform="scale(0.015625)"/>
       </defs>
       <use xlink:href="#DejaVuSans-35"/>
      </g>
     </g>
    </g>
    <g id="xtick_4">
     <g id="line2d_4">
      <path d="M 236.16 174.528 
L 355.266847 115.219837 
" clip-path="url(#pd2ac10cad8)" style="fill: none; stroke: #b0b0b0; stroke-width: 0.8; stroke-linecap: square"/>
     </g>
     <g id="text_4">
      <!-- 7 -->
      <g transform="translate(364.617883 111.738875) scale(0.1 -0.1)">
       <defs>
        <path id="DejaVuSans-37" d="M 525 4666 
L 3525 4666 
L 3525 4397 
L 1831 0 
L 1172 0 
L 2766 4134 
L 525 4134 
L 525 4666 
z
" transform="scale(0.015625)"/>
       </defs>
       <use xlink:href="#DejaVuSans-37"/>
      </g>
     </g>
    </g>
    <g id="xtick_5">
     <g id="line2d_5">
      <path d="M 236.16 174.528 
L 368.648407 162.251141 
" clip-path="url(#pd2ac10cad8)" style="fill: none; stroke: #b0b0b0; stroke-width: 0.8; stroke-linecap: square"/>
     </g>
     <g id="text_5">
      <!-- 11 -->
      <g transform="translate(376.226185 163.718759) scale(0.1 -0.1)">
       <defs>
        <path id="DejaVuSans-31" d="M 794 531 
L 1825 531 
L 1825 4091 
L 703 3866 
L 703 4441 
L 1819 4666 
L 2450 4666 
L 2450 531 
L 3481 531 
L 3481 0 
L 794 0 
L 794 531 
z
" transform="scale(0.015625)"/>
       </defs>
       <use xlink:href="#DejaVuSans-31"/>
       <use xlink:href="#DejaVuSans-31" x="63.623047"/>
      </g>
     </g>
    </g>
    <g id="xtick_6">
     <g id="line2d_6">
      <path d="M 236.16 174.528 
L 364.136673 210.940503 
" clip-path="url(#pd2ac10cad8)" style="fill: none; stroke: #b0b0b0; stroke-width: 0.8; stroke-linecap: square"/>
     </g>
     <g id="text_6">
      <!-- 13 -->
      <g transform="translate(371.239732 217.53116) scale(0.1 -0.1)">
       <use xlink:href="#DejaVuSans-31"/>
       <use xlink:href="#DejaVuSans-33" x="63.623047"/>
      </g>
     </g>
    </g>
    <g id="xtick_7">
     <g id="line2d_7">
      <path d="M 236.16 174.528 
L 342.34098 254.712154 
" clip-path="url(#pd2ac10cad8)" style="fill: none; stroke: #b0b0b0; stroke-width: 0.8; stroke-linecap: square"/>
     </g>
     <g id="text_7">
      <!-- 17 -->
      <g transform="translate(347.150721 265.908414) scale(0.1 -0.1)">
       <use xlink:href="#DejaVuSans-31"/>
       <use xlink:href="#DejaVuSans-37" x="63.623047"/>
      </g>
     </g>
    </g>
    <g id="xtick_8">
     <g id="line2d_8">
      <path d="M 236.16 174.528 
L 306.204958 287.654491 
" clip-path="url(#pd2ac10cad8)" style="fill: none; stroke: #b0b0b0; stroke-width: 0.8; stroke-linecap: square"/>
     </g>
     <g id="text_8">
      <!-- 19 -->
      <g transform="translate(307.212508 302.316906) scale(0.1 -0.1)">
       <defs>
        <path id="DejaVuSans-39" d="M 703 97 
L 703 672 
Q 941 559 1184 500 
Q 1428 441 1663 441 
Q 2288 441 2617 861 
Q 2947 1281 2994 2138 
Q 2813 1869 2534 1725 
Q 2256 1581 1919 1581 
Q 1219 1581 811 2004 
Q 403 2428 403 3163 
Q 403 3881 828 4315 
Q 1253 4750 1959 4750 
Q 2769 4750 3195 4129 
Q 3622 3509 3622 2328 
Q 3622 1225 3098 567 
Q 2575 -91 1691 -91 
Q 1453 -91 1209 -44 
Q 966 3 703 97 
z
M 1959 2075 
Q 2384 2075 2632 2365 
Q 2881 2656 2881 3163 
Q 2881 3666 2632 3958 
Q 2384 4250 1959 4250 
Q 1534 4250 1286 3958 
Q 1038 3666 1038 3163 
Q 1038 2656 1286 2365 
Q 1534 2075 1959 2075 
z
" transform="scale(0.015625)"/>
       </defs>
       <use xlink:href="#DejaVuSans-31"/>
       <use xlink:href="#DejaVuSans-39" x="63.623047"/>
      </g>
     </g>
    </g>
    <g id="xtick_9">
     <g id="line2d_9">
      <path d="M 236.16 174.528 
L 260.608976 305.318469 
" clip-path="url(#pd2ac10cad8)" style="fill: none; stroke: #b0b0b0; stroke-width: 0.8; stroke-linecap: square"/>
     </g>
     <g id="text_9">
      <!-- 23 -->
      <g transform="translate(256.818969 321.839467) scale(0.1 -0.1)">
       <use xlink:href="#DejaVuSans-32"/>
       <use xlink:href="#DejaVuSans-33" x="63.623047"/>
      </g>
     </g>
    </g>
    <g id="xtick_10">
     <g id="line2d_10">
      <path d="M 236.16 174.528 
L 211.711024 305.318469 
" clip-path="url(#pd2ac10cad8)" style="fill: none; stroke: #b0b0b0; stroke-width: 0.8; stroke-linecap: square"/>
     </g>
     <g id="text_10">
      <!-- 29 -->
      <g transform="translate(202.776031 321.839467) scale(0.1 -0.1)">
       <use xlink:href="#DejaVuSans-32"/>
       <use xlink:href="#DejaVuSans-39" x="63.623047"/>
      </g>
     </g>
    </g>
    <g id="xtick_11">
     <g id="line2d_11">
      <path d="M 236.16 174.528 
L 166.115042 287.654491 
" clip-path="url(#pd2ac10cad8)" style="fill: none; stroke: #b0b0b0; stroke-width: 0.8; stroke-linecap: square"/>
     </g>
     <g id="text_11">
      <!-- 31 -->
      <g transform="translate(152.382492 302.316906) scale(0.1 -0.1)">
       <use xlink:href="#DejaVuSans-33"/>
       <use xlink:href="#DejaVuSans-31" x="63.623047"/>
      </g>
     </g>
    </g>
    <g id="xtick_12">
     <g id="line2d_12">
      <path d="M 236.16 174.528 
L 129.97902 254.712154 
" clip-path="url(#pd2ac10cad8)" style="fill: none; stroke: #b0b0b0; stroke-width: 0.8; stroke-linecap: square"/>
     </g>
     <g id="text_12">
      <!-- 37 -->
      <g transform="translate(112.444279 265.908414) scale(0.1 -0.1)">
       <use xlink:href="#DejaVuSans-33"/>
       <use xlink:href="#DejaVuSans-37" x="63.623047"/>
      </g>
     </g>
    </g>
    <g id="xtick_13">
     <g id="line2d_13">
      <path d="M 236.16 174.528 
L 108.183327 210.940503 
" clip-path="url(#pd2ac10cad8)" style="fill: none; stroke: #b0b0b0; stroke-width: 0.8; stroke-linecap: square"/>
     </g>
     <g id="text_13">
      <!-- 41 -->
      <g transform="translate(88.355268 217.53116) scale(0.1 -0.1)">
       <defs>
        <path id="DejaVuSans-34" d="M 2419 4116 
L 825 1625 
L 2419 1625 
L 2419 4116 
z
M 2253 4666 
L 3047 4666 
L 3047 1625 
L 3713 1625 
L 3713 1100 
L 3047 1100 
L 3047 0 
L 2419 0 
L 2419 1100 
L 313 1100 
L 313 1709 
L 2253 4666 
z
" transform="scale(0.015625)"/>
       </defs>
       <use xlink:href="#DejaVuSans-34"/>
       <use xlink:href="#DejaVuSans-31" x="63.623047"/>
      </g>
     </g>
    </g>
    <g id="xtick_14">
     <g id="line2d_14">
      <path d="M 236.16 174.528 
L 103.671593 162.251141 
" clip-path="url(#pd2ac10cad8)" style="fill: none; stroke: #b0b0b0; stroke-width: 0.8; stroke-linecap: square"/>
     </g>
     <g id="text_14">
      <!-- 43 -->
      <g transform="translate(83.368815 163.718759) scale(0.1 -0.1)">
       <use xlink:href="#DejaVuSans-34"/>
       <use xlink:href="#DejaVuSans-33" x="63.623047"/>
      </g>
     </g>
    </g>
    <g id="xtick_15">
     <g id="line2d_15">
      <path d="M 236.16 174.528 
L 117.053153 115.219837 
" clip-path="url(#pd2ac10cad8)" style="fill: none; stroke: #b0b0b0; stroke-width: 0.8; stroke-linecap: square"/>
     </g>
     <g id="text_15">
      <!-- 47 -->
      <g transform="translate(98.158367 111.738875) scale(0.1 -0.1)">
       <use xlink:href="#DejaVuSans-34"/>
       <use xlink:href="#DejaVuSans-37" x="63.623047"/>
      </g>
     </g>
    </g>
    <g id="xtick_16">
     <g id="line2d_16">
      <path d="M 236.16 174.528 
L 146.520752 76.19843 
" clip-path="url(#pd2ac10cad8)" style="fill: none; stroke: #b0b0b0; stroke-width: 0.8; stroke-linecap: square"/>
     </g>
     <g id="text_16">
      <!-- 53 -->
      <g transform="translate(130.726513 68.61168) scale(0.1 -0.1)">
       <use xlink:href="#DejaVuSans-35"/>
       <use xlink:href="#DejaVuSans-33" x="63.623047"/>
      </g>
     </g>
    </g>
    <g id="xtick_17">
     <g id="line2d_17">
      <path d="M 236.16 174.528 
L 188.094629 50.456975 
" clip-path="url(#pd2ac10cad8)" style="fill: none; stroke: #b0b0b0; stroke-width: 0.8; stroke-linecap: square"/>
     </g>
     <g id="text_17">
      <!-- 59 -->
      <g transform="translate(176.674746 40.161739) scale(0.1 -0.1)">
       <use xlink:href="#DejaVuSans-35"/>
       <use xlink:href="#DejaVuSans-39" x="63.623047"/>
      </g>
     </g>
    </g>
   </g>
   <g id="matplotlib.axis_2">
    <g id="ytick_1">
     <g id="line2d_18">
      <path d="M 342.6048 174.528 
C 342.6048 160.549797 339.851399 146.707514 334.502172 133.793339 
C 329.152945 120.879163 321.311922 109.144242 311.42784 99.26016 
C 301.543758 89.376078 289.808837 81.535055 276.894661 76.185828 
C 263.980486 70.836601 250.138203 68.0832 236.16 68.0832 
C 222.181797 68.0832 208.339514 70.836601 195.425339 76.185828 
C 182.511163 81.535055 170.776242 89.376078 160.89216 99.26016 
C 151.008078 109.144242 143.167055 120.879163 137.817828 133.793339 
C 132.468601 146.707514 129.7152 160.549797 129.7152 174.528 
C 129.7152 188.506203 132.468601 202.348486 137.817828 215.262661 
C 143.167055 228.176837 151.008078 239.911758 160.89216 249.79584 
C 170.776242 259.679922 182.511163 267.520945 195.425339 272.870172 
C 208.339514 278.219399 222.181797 280.9728 236.16 280.9728 
C 250.138203 280.9728 263.980486 278.219399 276.894661 272.870172 
C 289.808837 267.520945 301.543758 259.679922 311.42784 249.79584 
C 321.311922 239.911758 329.152945 228.176837 334.502172 215.262661 
C 339.851399 202.348486 342.6048 188.506203 342.6048 174.528 
" clip-path="url(#pd2ac10cad8)" style="fill: none; stroke: #b0b0b0; stroke-width: 0.8; stroke-linecap: square"/>
     </g>
     <g id="text_18">
      <!-- 1 -->
      <g transform="translate(334.502172 131.713651) scale(0.1 -0.1)">
       <use xlink:href="#DejaVuSans-31"/>
      </g>
     </g>
    </g>
    <g id="ytick_2">
     <g id="line2d_19">
      <path d="M 315.9936 174.528 
C 315.9936 164.044348 313.928549 153.662636 309.916629 143.977004 
C 305.904709 134.291372 300.023942 125.490182 292.61088 118.07712 
C 285.197818 110.664058 276.396628 104.783291 266.710996 100.771371 
C 257.025364 96.759451 246.643652 94.6944 236.16 94.6944 
C 225.676348 94.6944 215.294636 96.759451 205.609004 100.771371 
C 195.923372 104.783291 187.122182 110.664058 179.70912 118.07712 
C 172.296058 125.490182 166.415291 134.291372 162.403371 143.977004 
C 158.391451 153.662636 156.3264 164.044348 156.3264 174.528 
C 156.3264 185.011652 158.391451 195.393364 162.403371 205.078996 
C 166.415291 214.764628 172.296058 223.565818 179.70912 230.97888 
C 187.122182 238.391942 195.923372 244.272709 205.609004 248.284629 
C 215.294636 252.296549 225.676348 254.3616 236.16 254.3616 
C 246.643652 254.3616 257.025364 252.296549 266.710996 248.284629 
C 276.396628 244.272709 285.197818 238.391942 292.61088 230.97888 
C 300.023942 223.565818 305.904709 214.764628 309.916629 205.078996 
C 313.928549 195.393364 315.9936 185.011652 315.9936 174.528 
" clip-path="url(#pd2ac10cad8)" style="fill: none; stroke: #b0b0b0; stroke-width: 0.8; stroke-linecap: square"/>
     </g>
     <g id="text_19">
      <!-- 2 -->
      <g transform="translate(309.916629 141.897316) scale(0.1 -0.1)">
       <use xlink:href="#DejaVuSans-32"/>
      </g>
     </g>
    </g>
    <g id="ytick_3">
     <g id="line2d_20">
      <path d="M 289.3824 174.528 
C 289.3824 167.538898 288.005699 160.617757 285.331086 154.160669 
C 282.656473 147.703581 278.735961 141.836121 273.79392 136.89408 
C 268.851879 131.952039 262.984419 128.031527 256.527331 125.356914 
C 250.070243 122.682301 243.149102 121.3056 236.16 121.3056 
C 229.170898 121.3056 222.249757 122.682301 215.792669 125.356914 
C 209.335581 128.031527 203.468121 131.952039 198.52608 136.89408 
C 193.584039 141.836121 189.663527 147.703581 186.988914 154.160669 
C 184.314301 160.617757 182.9376 167.538898 182.9376 174.528 
C 182.9376 181.517102 184.314301 188.438243 186.988914 194.895331 
C 189.663527 201.352419 193.584039 207.219879 198.52608 212.16192 
C 203.468121 217.103961 209.335581 221.024473 215.792669 223.699086 
C 222.249757 226.373699 229.170898 227.7504 236.16 227.7504 
C 243.149102 227.7504 250.070243 226.373699 256.527331 223.699086 
C 262.984419 221.024473 268.851879 217.103961 273.79392 212.16192 
C 278.735961 207.219879 282.656473 201.352419 285.331086 194.895331 
C 288.005699 188.438243 289.3824 181.517102 289.3824 174.528 
" clip-path="url(#pd2ac10cad8)" style="fill: none; stroke: #b0b0b0; stroke-width: 0.8; stroke-linecap: square"/>
     </g>
     <g id="text_20">
      <!-- 3 -->
      <g transform="translate(285.331086 152.080982) scale(0.1 -0.1)">
       <use xlink:href="#DejaVuSans-33"/>
      </g>
     </g>
    </g>
    <g id="ytick_4">
     <g id="line2d_21">
      <path d="M 262.7712 174.528 
C 262.7712 171.033449 262.08285 167.572879 260.745543 164.344335 
C 259.408236 161.115791 257.447981 158.182061 254.97696 155.71104 
C 252.505939 153.240019 249.572209 151.279764 246.343665 149.942457 
C 243.115121 148.60515 239.654551 147.9168 236.16 147.9168 
C 232.665449 147.9168 229.204879 148.60515 225.976335 149.942457 
C 222.747791 151.279764 219.814061 153.240019 217.34304 155.71104 
C 214.872019 158.182061 212.911764 161.115791 211.574457 164.344335 
C 210.23715 167.572879 209.5488 171.033449 209.5488 174.528 
C 209.5488 178.022551 210.23715 181.483121 211.574457 184.711665 
C 212.911764 187.940209 214.872019 190.873939 217.34304 193.34496 
C 219.814061 195.815981 222.747791 197.776236 225.976335 199.113543 
C 229.204879 200.45085 232.665449 201.1392 236.16 201.1392 
C 239.654551 201.1392 243.115121 200.45085 246.343665 199.113543 
C 249.572209 197.776236 252.505939 195.815981 254.97696 193.34496 
C 257.447981 190.873939 259.408236 187.940209 260.745543 184.711665 
C 262.08285 181.483121 262.7712 178.022551 262.7712 174.528 
" clip-path="url(#pd2ac10cad8)" style="fill: none; stroke: #b0b0b0; stroke-width: 0.8; stroke-linecap: square"/>
     </g>
     <g id="text_21">
      <!-- 4 -->
      <g transform="translate(260.745543 162.264647) scale(0.1 -0.1)">
       <use xlink:href="#DejaVuSans-34"/>
      </g>
     </g>
    </g>
    <g id="ytick_5">
     <g id="line2d_22">
      <path d="M 236.16 174.528 
C 236.16 174.528 236.16 174.528 236.16 174.528 
C 236.16 174.528 236.16 174.528 236.16 174.528 
C 236.16 174.528 236.16 174.528 236.16 174.528 
C 236.16 174.528 236.16 174.528 236.16 174.528 
C 236.16 174.528 236.16 174.528 236.16 174.528 
C 236.16 174.528 236.16 174.528 236.16 174.528 
C 236.16 174.528 236.16 174.528 236.16 174.528 
C 236.16 174.528 236.16 174.528 236.16 174.528 
C 236.16 174.528 236.16 174.528 236.16 174.528 
C 236.16 174.528 236.16 174.528 236.16 174.528 
C 236.16 174.528 236.16 174.528 236.16 174.528 
C 236.16 174.528 236.16 174.528 236.16 174.528 
C 236.16 174.528 236.16 174.528 236.16 174.528 
C 236.16 174.528 236.16 174.528 236.16 174.528 
C 236.16 174.528 236.16 174.528 236.16 174.528 
C 236.16 174.528 236.16 174.528 236.16 174.528 
" clip-path="url(#pd2ac10cad8)" style="fill: none; stroke: #b0b0b0; stroke-width: 0.8; stroke-linecap: square"/>
     </g>
     <g id="text_22">
      <!-- 5 -->
      <g transform="translate(236.16 172.448312) scale(0.1 -0.1)">
       <use xlink:href="#DejaVuSans-35"/>
      </g>
     </g>
    </g>
   </g>
   <g id="patch_54">
    <path d="M 369.216 174.528 
C 369.216 157.055246 365.774248 139.752393 359.087715 123.609673 
C 352.401182 107.466954 342.599903 92.798303 330.2448 80.4432 
C 317.889697 68.088097 303.221046 58.286818 287.078327 51.600285 
C 270.935607 44.913752 253.632754 41.472 236.16 41.472 
C 218.687246 41.472 201.384393 44.913752 185.241673 51.600285 
C 169.098954 58.286818 154.430303 68.088097 142.0752 80.4432 
C 129.720097 92.798303 119.918818 107.466954 113.232285 123.609673 
C 106.545752 139.752393 103.104 157.055246 103.104 174.528 
C 103.104 192.000754 106.545752 209.303607 113.232285 225.446327 
C 119.918818 241.589046 129.720097 256.257697 142.0752 268.6128 
C 154.430303 280.967903 169.098954 290.769182 185.241673 297.455715 
C 201.384393 304.142248 218.687246 307.584 236.16 307.584 
C 253.632754 307.584 270.935607 304.142248 287.078327 297.455715 
C 303.221046 290.769182 317.889697 280.967903 330.2448 268.6128 
C 342.599903 256.257697 352.401182 241.589046 359.087715 225.446327 
C 365.774248 209.303607 369.216 192.000754 369.216 174.528 
" style="fill: none; stroke: #000000; stroke-width: 0.8; stroke-linejoin: miter; stroke-linecap: square"/>
   </g>
   <g id="text_23">
    <!-- Prime number decomposition plot at 16:36:19 -->
    <g transform="translate(97.469063 14.137313) scale(0.12 -0.12)">
     <defs>
      <path id="DejaVuSans-50" d="M 1259 4147 
L 1259 2394 
L 2053 2394 
Q 2494 2394 2734 2622 
Q 2975 2850 2975 3272 
Q 2975 3691 2734 3919 
Q 2494 4147 2053 4147 
L 1259 4147 
z
M 628 4666 
L 2053 4666 
Q 2838 4666 3239 4311 
Q 3641 3956 3641 3272 
Q 3641 2581 3239 2228 
Q 2838 1875 2053 1875 
L 1259 1875 
L 1259 0 
L 628 0 
L 628 4666 
z
" transform="scale(0.015625)"/>
      <path id="DejaVuSans-72" d="M 2631 2963 
Q 2534 3019 2420 3045 
Q 2306 3072 2169 3072 
Q 1681 3072 1420 2755 
Q 1159 2438 1159 1844 
L 1159 0 
L 581 0 
L 581 3500 
L 1159 3500 
L 1159 2956 
Q 1341 3275 1631 3429 
Q 1922 3584 2338 3584 
Q 2397 3584 2469 3576 
Q 2541 3569 2628 3553 
L 2631 2963 
z
" transform="scale(0.015625)"/>
      <path id="DejaVuSans-69" d="M 603 3500 
L 1178 3500 
L 1178 0 
L 603 0 
L 603 3500 
z
M 603 4863 
L 1178 4863 
L 1178 4134 
L 603 4134 
L 603 4863 
z
" transform="scale(0.015625)"/>
      <path id="DejaVuSans-6d" d="M 3328 2828 
Q 3544 3216 3844 3400 
Q 4144 3584 4550 3584 
Q 5097 3584 5394 3201 
Q 5691 2819 5691 2113 
L 5691 0 
L 5113 0 
L 5113 2094 
Q 5113 2597 4934 2840 
Q 4756 3084 4391 3084 
Q 3944 3084 3684 2787 
Q 3425 2491 3425 1978 
L 3425 0 
L 2847 0 
L 2847 2094 
Q 2847 2600 2669 2842 
Q 2491 3084 2119 3084 
Q 1678 3084 1418 2786 
Q 1159 2488 1159 1978 
L 1159 0 
L 581 0 
L 581 3500 
L 1159 3500 
L 1159 2956 
Q 1356 3278 1631 3431 
Q 1906 3584 2284 3584 
Q 2666 3584 2933 3390 
Q 3200 3197 3328 2828 
z
" transform="scale(0.015625)"/>
      <path id="DejaVuSans-65" d="M 3597 1894 
L 3597 1613 
L 953 1613 
Q 991 1019 1311 708 
Q 1631 397 2203 397 
Q 2534 397 2845 478 
Q 3156 559 3463 722 
L 3463 178 
Q 3153 47 2828 -22 
Q 2503 -91 2169 -91 
Q 1331 -91 842 396 
Q 353 884 353 1716 
Q 353 2575 817 3079 
Q 1281 3584 2069 3584 
Q 2775 3584 3186 3129 
Q 3597 2675 3597 1894 
z
M 3022 2063 
Q 3016 2534 2758 2815 
Q 2500 3097 2075 3097 
Q 1594 3097 1305 2825 
Q 1016 2553 972 2059 
L 3022 2063 
z
" transform="scale(0.015625)"/>
      <path id="DejaVuSans-20" transform="scale(0.015625)"/>
      <path id="DejaVuSans-6e" d="M 3513 2113 
L 3513 0 
L 2938 0 
L 2938 2094 
Q 2938 2591 2744 2837 
Q 2550 3084 2163 3084 
Q 1697 3084 1428 2787 
Q 1159 2491 1159 1978 
L 1159 0 
L 581 0 
L 581 3500 
L 1159 3500 
L 1159 2956 
Q 1366 3272 1645 3428 
Q 1925 3584 2291 3584 
Q 2894 3584 3203 3211 
Q 3513 2838 3513 2113 
z
" transform="scale(0.015625)"/>
      <path id="DejaVuSans-75" d="M 544 1381 
L 544 3500 
L 1119 3500 
L 1119 1403 
Q 1119 906 1312 657 
Q 1506 409 1894 409 
Q 2359 409 2629 706 
Q 2900 1003 2900 1516 
L 2900 3500 
L 3475 3500 
L 3475 0 
L 2900 0 
L 2900 538 
Q 2691 219 2414 64 
Q 2138 -91 1772 -91 
Q 1169 -91 856 284 
Q 544 659 544 1381 
z
M 1991 3584 
L 1991 3584 
z
" transform="scale(0.015625)"/>
      <path id="DejaVuSans-62" d="M 3116 1747 
Q 3116 2381 2855 2742 
Q 2594 3103 2138 3103 
Q 1681 3103 1420 2742 
Q 1159 2381 1159 1747 
Q 1159 1113 1420 752 
Q 1681 391 2138 391 
Q 2594 391 2855 752 
Q 3116 1113 3116 1747 
z
M 1159 2969 
Q 1341 3281 1617 3432 
Q 1894 3584 2278 3584 
Q 2916 3584 3314 3078 
Q 3713 2572 3713 1747 
Q 3713 922 3314 415 
Q 2916 -91 2278 -91 
Q 1894 -91 1617 61 
Q 1341 213 1159 525 
L 1159 0 
L 581 0 
L 581 4863 
L 1159 4863 
L 1159 2969 
z
" transform="scale(0.015625)"/>
      <path id="DejaVuSans-64" d="M 2906 2969 
L 2906 4863 
L 3481 4863 
L 3481 0 
L 2906 0 
L 2906 525 
Q 2725 213 2448 61 
Q 2172 -91 1784 -91 
Q 1150 -91 751 415 
Q 353 922 353 1747 
Q 353 2572 751 3078 
Q 1150 3584 1784 3584 
Q 2172 3584 2448 3432 
Q 2725 3281 2906 2969 
z
M 947 1747 
Q 947 1113 1208 752 
Q 1469 391 1925 391 
Q 2381 391 2643 752 
Q 2906 1113 2906 1747 
Q 2906 2381 2643 2742 
Q 2381 3103 1925 3103 
Q 1469 3103 1208 2742 
Q 947 2381 947 1747 
z
" transform="scale(0.015625)"/>
      <path id="DejaVuSans-63" d="M 3122 3366 
L 3122 2828 
Q 2878 2963 2633 3030 
Q 2388 3097 2138 3097 
Q 1578 3097 1268 2742 
Q 959 2388 959 1747 
Q 959 1106 1268 751 
Q 1578 397 2138 397 
Q 2388 397 2633 464 
Q 2878 531 3122 666 
L 3122 134 
Q 2881 22 2623 -34 
Q 2366 -91 2075 -91 
Q 1284 -91 818 406 
Q 353 903 353 1747 
Q 353 2603 823 3093 
Q 1294 3584 2113 3584 
Q 2378 3584 2631 3529 
Q 2884 3475 3122 3366 
z
" transform="scale(0.015625)"/>
      <path id="DejaVuSans-6f" d="M 1959 3097 
Q 1497 3097 1228 2736 
Q 959 2375 959 1747 
Q 959 1119 1226 758 
Q 1494 397 1959 397 
Q 2419 397 2687 759 
Q 2956 1122 2956 1747 
Q 2956 2369 2687 2733 
Q 2419 3097 1959 3097 
z
M 1959 3584 
Q 2709 3584 3137 3096 
Q 3566 2609 3566 1747 
Q 3566 888 3137 398 
Q 2709 -91 1959 -91 
Q 1206 -91 779 398 
Q 353 888 353 1747 
Q 353 2609 779 3096 
Q 1206 3584 1959 3584 
z
" transform="scale(0.015625)"/>
      <path id="DejaVuSans-70" d="M 1159 525 
L 1159 -1331 
L 581 -1331 
L 581 3500 
L 1159 3500 
L 1159 2969 
Q 1341 3281 1617 3432 
Q 1894 3584 2278 3584 
Q 2916 3584 3314 3078 
Q 3713 2572 3713 1747 
Q 3713 922 3314 415 
Q 2916 -91 2278 -91 
Q 1894 -91 1617 61 
Q 1341 213 1159 525 
z
M 3116 1747 
Q 3116 2381 2855 2742 
Q 2594 3103 2138 3103 
Q 1681 3103 1420 2742 
Q 1159 2381 1159 1747 
Q 1159 1113 1420 752 
Q 1681 391 2138 391 
Q 2594 391 2855 752 
Q 3116 1113 3116 1747 
z
" transform="scale(0.015625)"/>
      <path id="DejaVuSans-73" d="M 2834 3397 
L 2834 2853 
Q 2591 2978 2328 3040 
Q 2066 3103 1784 3103 
Q 1356 3103 1142 2972 
Q 928 2841 928 2578 
Q 928 2378 1081 2264 
Q 1234 2150 1697 2047 
L 1894 2003 
Q 2506 1872 2764 1633 
Q 3022 1394 3022 966 
Q 3022 478 2636 193 
Q 2250 -91 1575 -91 
Q 1294 -91 989 -36 
Q 684 19 347 128 
L 347 722 
Q 666 556 975 473 
Q 1284 391 1588 391 
Q 1994 391 2212 530 
Q 2431 669 2431 922 
Q 2431 1156 2273 1281 
Q 2116 1406 1581 1522 
L 1381 1569 
Q 847 1681 609 1914 
Q 372 2147 372 2553 
Q 372 3047 722 3315 
Q 1072 3584 1716 3584 
Q 2034 3584 2315 3537 
Q 2597 3491 2834 3397 
z
" transform="scale(0.015625)"/>
      <path id="DejaVuSans-74" d="M 1172 4494 
L 1172 3500 
L 2356 3500 
L 2356 3053 
L 1172 3053 
L 1172 1153 
Q 1172 725 1289 603 
Q 1406 481 1766 481 
L 2356 481 
L 2356 0 
L 1766 0 
Q 1100 0 847 248 
Q 594 497 594 1153 
L 594 3053 
L 172 3053 
L 172 3500 
L 594 3500 
L 594 4494 
L 1172 4494 
z
" transform="scale(0.015625)"/>
      <path id="DejaVuSans-6c" d="M 603 4863 
L 1178 4863 
L 1178 0 
L 603 0 
L 603 4863 
z
" transform="scale(0.015625)"/>
      <path id="DejaVuSans-61" d="M 2194 1759 
Q 1497 1759 1228 1600 
Q 959 1441 959 1056 
Q 959 750 1161 570 
Q 1363 391 1709 391 
Q 2188 391 2477 730 
Q 2766 1069 2766 1631 
L 2766 1759 
L 2194 1759 
z
M 3341 1997 
L 3341 0 
L 2766 0 
L 2766 531 
Q 2569 213 2275 61 
Q 1981 -91 1556 -91 
Q 1019 -91 701 211 
Q 384 513 384 1019 
Q 384 1609 779 1909 
Q 1175 2209 1959 2209 
L 2766 2209 
L 2766 2266 
Q 2766 2663 2505 2880 
Q 2244 3097 1772 3097 
Q 1472 3097 1187 3025 
Q 903 2953 641 2809 
L 641 3341 
Q 956 3463 1253 3523 
Q 1550 3584 1831 3584 
Q 2591 3584 2966 3190 
Q 3341 2797 3341 1997 
z
" transform="scale(0.015625)"/>
      <path id="DejaVuSans-36" d="M 2113 2584 
Q 1688 2584 1439 2293 
Q 1191 2003 1191 1497 
Q 1191 994 1439 701 
Q 1688 409 2113 409 
Q 2538 409 2786 701 
Q 3034 994 3034 1497 
Q 3034 2003 2786 2293 
Q 2538 2584 2113 2584 
z
M 3366 4563 
L 3366 3988 
Q 3128 4100 2886 4159 
Q 2644 4219 2406 4219 
Q 1781 4219 1451 3797 
Q 1122 3375 1075 2522 
Q 1259 2794 1537 2939 
Q 1816 3084 2150 3084 
Q 2853 3084 3261 2657 
Q 3669 2231 3669 1497 
Q 3669 778 3244 343 
Q 2819 -91 2113 -91 
Q 1303 -91 875 529 
Q 447 1150 447 2328 
Q 447 3434 972 4092 
Q 1497 4750 2381 4750 
Q 2619 4750 2861 4703 
Q 3103 4656 3366 4563 
z
" transform="scale(0.015625)"/>
      <path id="DejaVuSans-3a" d="M 750 794 
L 1409 794 
L 1409 0 
L 750 0 
L 750 794 
z
M 750 3309 
L 1409 3309 
L 1409 2516 
L 750 2516 
L 750 3309 
z
" transform="scale(0.015625)"/>
     </defs>
     <use xlink:href="#DejaVuSans-50"/>
     <use xlink:href="#DejaVuSans-72" x="58.552734"/>
     <use xlink:href="#DejaVuSans-69" x="99.666016"/>
     <use xlink:href="#DejaVuSans-6d" x="127.449219"/>
     <use xlink:href="#DejaVuSans-65" x="224.861328"/>
     <use xlink:href="#DejaVuSans-20" x="286.384766"/>
     <use xlink:href="#DejaVuSans-6e" x="318.171875"/>
     <use xlink:href="#DejaVuSans-75" x="381.550781"/>
     <use xlink:href="#DejaVuSans-6d" x="444.929688"/>
     <use xlink:href="#DejaVuSans-62" x="542.341797"/>
     <use xlink:href="#DejaVuSans-65" x="605.818359"/>
     <use xlink:href="#DejaVuSans-72" x="667.341797"/>
     <use xlink:href="#DejaVuSans-20" x="708.455078"/>
     <use xlink:href="#DejaVuSans-64" x="740.242188"/>
     <use xlink:href="#DejaVuSans-65" x="803.71875"/>
     <use xlink:href="#DejaVuSans-63" x="865.242188"/>
     <use xlink:href="#DejaVuSans-6f" x="920.222656"/>
     <use xlink:href="#DejaVuSans-6d" x="981.404297"/>
     <use xlink:href="#DejaVuSans-70" x="1078.816406"/>
     <use xlink:href="#DejaVuSans-6f" x="1142.292969"/>
     <use xlink:href="#DejaVuSans-73" x="1203.474609"/>
     <use xlink:href="#DejaVuSans-69" x="1255.574219"/>
     <use xlink:href="#DejaVuSans-74" x="1283.357422"/>
     <use xlink:href="#DejaVuSans-69" x="1322.566406"/>
     <use xlink:href="#DejaVuSans-6f" x="1350.349609"/>
     <use xlink:href="#DejaVuSans-6e" x="1411.53125"/>
     <use xlink:href="#DejaVuSans-20" x="1474.910156"/>
     <use xlink:href="#DejaVuSans-70" x="1506.697266"/>
     <use xlink:href="#DejaVuSans-6c" x="1570.173828"/>
     <use xlink:href="#DejaVuSans-6f" x="1597.957031"/>
     <use xlink:href="#DejaVuSans-74" x="1659.138672"/>
     <use xlink:href="#DejaVuSans-20" x="1698.347656"/>
     <use xlink:href="#DejaVuSans-61" x="1730.134766"/>
     <use xlink:href="#DejaVuSans-74" x="1791.414062"/>
     <use xlink:href="#DejaVuSans-20" x="1830.623047"/>
     <use xlink:href="#DejaVuSans-31" x="1862.410156"/>
     <use xlink:href="#DejaVuSans-36" x="1926.033203"/>
     <use xlink:href="#DejaVuSans-3a" x="1989.65625"/>
     <use xlink:href="#DejaVuSans-33" x="2023.347656"/>
     <use xlink:href="#DejaVuSans-36" x="2086.970703"/>
     <use xlink:href="#DejaVuSans-3a" x="2150.59375"/>
     <use xlink:href="#DejaVuSans-31" x="2184.285156"/>
     <use xlink:href="#DejaVuSans-39" x="2247.908203"/>
    </g>
   </g>
   <g id="legend_1">
    <g id="patch_55">
     <path d="M 373.911927 103.63466 
L 446.786927 103.63466 
Q 448.786927 103.63466 448.786927 101.63466 
L 448.786927 58.600285 
Q 448.786927 56.600285 446.786927 56.600285 
L 373.911927 56.600285 
Q 371.911927 56.600285 371.911927 58.600285 
L 371.911927 101.63466 
Q 371.911927 103.63466 373.911927 103.63466 
z
" style="fill: #ffffff; opacity: 0.8; stroke: #cccccc; stroke-linejoin: miter"/>
    </g>
    <g id="patch_56">
     <path d="M 375.911927 68.198722 
L 395.911927 68.198722 
L 395.911927 61.198722 
L 375.911927 61.198722 
z
" style="fill: #ff0000; opacity: 0.5; stroke: #000000; stroke-linejoin: miter"/>
    </g>
    <g id="text_24">
     <!-- hours -->
     <g transform="translate(403.911927 68.198722) scale(0.1 -0.1)">
      <defs>
       <path id="DejaVuSans-68" d="M 3513 2113 
L 3513 0 
L 2938 0 
L 2938 2094 
Q 2938 2591 2744 2837 
Q 2550 3084 2163 3084 
Q 1697 3084 1428 2787 
Q 1159 2491 1159 1978 
L 1159 0 
L 581 0 
L 581 4863 
L 1159 4863 
L 1159 2956 
Q 1366 3272 1645 3428 
Q 1925 3584 2291 3584 
Q 2894 3584 3203 3211 
Q 3513 2838 3513 2113 
z
" transform="scale(0.015625)"/>
      </defs>
      <use xlink:href="#DejaVuSans-68"/>
      <use xlink:href="#DejaVuSans-6f" x="63.378906"/>
      <use xlink:href="#DejaVuSans-75" x="124.560547"/>
      <use xlink:href="#DejaVuSans-72" x="187.939453"/>
      <use xlink:href="#DejaVuSans-73" x="229.052734"/>
     </g>
    </g>
    <g id="patch_57">
     <path d="M 375.911927 82.876847 
L 395.911927 82.876847 
L 395.911927 75.876847 
L 375.911927 75.876847 
z
" style="fill: #0000ff; opacity: 0.5; stroke: #000000; stroke-linejoin: miter"/>
    </g>
    <g id="text_25">
     <!-- minutes -->
     <g transform="translate(403.911927 82.876847) scale(0.1 -0.1)">
      <use xlink:href="#DejaVuSans-6d"/>
      <use xlink:href="#DejaVuSans-69" x="97.412109"/>
      <use xlink:href="#DejaVuSans-6e" x="125.195312"/>
      <use xlink:href="#DejaVuSans-75" x="188.574219"/>
      <use xlink:href="#DejaVuSans-74" x="251.953125"/>
      <use xlink:href="#DejaVuSans-65" x="291.162109"/>
      <use xlink:href="#DejaVuSans-73" x="352.685547"/>
     </g>
    </g>
    <g id="patch_58">
     <path d="M 375.911927 97.554972 
L 395.911927 97.554972 
L 395.911927 90.554972 
L 375.911927 90.554972 
z
" style="fill: #008000; opacity: 0.5; stroke: #000000; stroke-linejoin: miter"/>
    </g>
    <g id="text_26">
     <!-- seconds -->
     <g transform="translate(403.911927 97.554972) scale(0.1 -0.1)">
      <use xlink:href="#DejaVuSans-73"/>
      <use xlink:href="#DejaVuSans-65" x="52.099609"/>
      <use xlink:href="#DejaVuSans-63" x="113.623047"/>
      <use xlink:href="#DejaVuSans-6f" x="168.603516"/>
      <use xlink:href="#DejaVuSans-6e" x="229.785156"/>
      <use xlink:href="#DejaVuSans-64" x="293.164062"/>
      <use xlink:href="#DejaVuSans-73" x="356.640625"/>
     </g>
    </g>
   </g>
  </g>
 </g>
 <defs>
  <clipPath id="pd2ac10cad8">
   <path d="M 369.216 174.528 
C 369.216 157.055246 365.774248 139.752393 359.087715 123.609673 
C 352.401182 107.466954 342.599903 92.798303 330.2448 80.4432 
C 317.889697 68.088097 303.221046 58.286818 287.078327 51.600285 
C 270.935607 44.913752 253.632754 41.472 236.16 41.472 
C 218.687246 41.472 201.384393 44.913752 185.241673 51.600285 
C 169.098954 58.286818 154.430303 68.088097 142.0752 80.4432 
C 129.720097 92.798303 119.918818 107.466954 113.232285 123.609673 
C 106.545752 139.752393 103.104 157.055246 103.104 174.528 
C 103.104 192.000754 106.545752 209.303607 113.232285 225.446327 
C 119.918818 241.589046 129.720097 256.257697 142.0752 268.6128 
C 154.430303 280.967903 169.098954 290.769182 185.241673 297.455715 
C 201.384393 304.142248 218.687246 307.584 236.16 307.584 
C 253.632754 307.584 270.935607 304.142248 287.078327 297.455715 
C 303.221046 290.769182 317.889697 280.967903 330.2448 268.6128 
C 342.599903 256.257697 352.401182 241.589046 359.087715 225.446327 
C 365.774248 209.303607 369.216 192.000754 369.216 174.528 
M 236.16 174.528 
C 236.16 174.528 236.16 174.528 236.16 174.528 
C 236.16 174.528 236.16 174.528 236.16 174.528 
C 236.16 174.528 236.16 174.528 236.16 174.528 
C 236.16 174.528 236.16 174.528 236.16 174.528 
C 236.16 174.528 236.16 174.528 236.16 174.528 
C 236.16 174.528 236.16 174.528 236.16 174.528 
C 236.16 174.528 236.16 174.528 236.16 174.528 
C 236.16 174.528 236.16 174.528 236.16 174.528 
C 236.16 174.528 236.16 174.528 236.16 174.528 
C 236.16 174.528 236.16 174.528 236.16 174.528 
C 236.16 174.528 236.16 174.528 236.16 174.528 
C 236.16 174.528 236.16 174.528 236.16 174.528 
C 236.16 174.528 236.16 174.528 236.16 174.528 
C 236.16 174.528 236.16 174.528 236.16 174.528 
C 236.16 174.528 236.16 174.528 236.16 174.528 
C 236.16 174.528 236.16 174.528 236.16 174.528 
z
"/>
  </clipPath>
 </defs>
</svg>
